<svg id="Layer_1" data-name="Layer 1" xmlns="http://www.w3.org/2000/svg" viewBox="0 0 529.85 561.22"><defs><style>.cls-1{fill:#03da97;}.cls-2{fill:#fff;}</style></defs><polygon class="cls-1" points="499.39 413.49 422.47 546.7 350.41 421.85 358.77 413.49 499.39 413.49"/><path class="cls-2" d="M479.86,288.16a9.88,9.88,0,0,1-3.28,7.6c-10,10-20.16,20.11-30.19,30.15l-77,77-10.62,10.59-8.36,8.36-10.77,10.7c-.58.58-1.17,1.13-1.75,1.71-5.7,5.7-11.39,11.36-17.05,17.05Q299,473.17,277.21,495L256.62,515.6c-9.38,9.38-18.76,18.84-28.14,28.22a9.6,9.6,0,0,1-7.6,3.25q-102.55-.23-205.23,0c-4,0-5.08-.81-5.08-5q.11-64.67.07-129.19,0-165.11-.07-330.2c0-3.51.84-4.6,3.43-4.93a9.63,9.63,0,0,1,1.57-.08c20.85.15,41.66.15,62.5.15,20.41,0,40.71-.07,61.11-.07,3.73-.08,4.82.76,4.82,4.71q-.21,102.78,0,205.67a9.82,9.82,0,0,1-3.25,7.6c-10.07,10-20.18,20.11-30.22,30.15L25.1,411.34l-1.57,1.57h125.4a12,12,0,0,0,1.64.07c11.47,0,23-.07,34.43-.07q62.64-.12,125.33,0c10.14,0,20.18.07,30.3.07a8,8,0,0,0,1.35-.07c2.88-.15,3.79-1.28,3.79-4.93q-.11-162.32-.14-324.54c-.11-4.75,1.17-5.74,5.8-5.74,41.22.26,82.36.15,123.58.08,3.72-.08,4.85.76,4.85,4.71Q479.65,185.27,479.86,288.16Z"/></svg>